# xmcd
#
# Track frame offsets:
#	150
#	16627
#	38705
#	54680
#	73960
#	89632
#	115472
#	141960
#	156050
#	176955
#
# Disc length: 2635 seconds
#
# Revision: 0
# Processed by: cddbd v1.5.2PL0 Copyright (c) Steve Scherf et al.
# Submitted via: SynApp - FreeCDDB Version: 2.3
#
DISCID=8f0a490a
DTITLE=Big Walker and Blue Souls - Dream Walking
DYEAR=1998
DGENRE=Blues
TTITLE0=01 - If I Had One Wish
TTITLE1=02 - I'm Going To Write A Letter
TTITLE2=03 - Dream Walking
TTITLE3=04 - Don't Mind Getting Old
TTITLE4=05 - Boogie Woogie
TTITLE5=06 - Black Ice
TTITLE6=07 - One Man's Meat
TTITLE7=08 - Where Shall I Be
TTITLE8=09 - Blues In The North Land
TTITLE9=10 - Dream Walking (part 2)
EXTD=
EXTT0=
EXTT1=
EXTT2=
EXTT3=
EXTT4=
EXTT5=
EXTT6=
EXTT7=
EXTT8=
EXTT9=
PLAYORDER=
